# xmcd
#
# Track frame offsets: 
#        150
#        16880
#        40445
#        54552
#        65961
#        76321
#        88293
#        111135
#        123104
#        133372
#        144943
#        163951
#        174441
#        192877
#        202988
#        216020
#        229345
#        240752
#        251934
#        264566
#        280046
#        292927
#        308769
#
# Disc length: 4288 seconds
#
# Revision: 0
# Processed by: cddbd v1.5.2PL0 Copyright (c) Steve Scherf et al.
# Submitted via: ExactAudioCopy v1.0b4
#
DISCID=5210be17
DTITLE=B.B. King - The Complete Singles As and Bs 1949-62  disc 5
DYEAR=2015
DGENRE=Blues
TTITLE0=Walking Dr. Bill
TTITLE1=You Done Lost Your Good Thing Now
TTITLE2=Things Are Not The Same
TTITLE3=Fishin' After Me
TTITLE4=Bad Luck Soul
TTITLE5=Get Out Of Here
TTITLE6=Hold That Train
TTITLE7=Understand
TTITLE8=Peace Of Mind
TTITLE9=Someday Baby
TTITLE10=You're Breaking My Heart
TTITLE11=Bad Case Of Love
TTITLE12=My Sometime Baby
TTITLE13=Lonely
TTITLE14=Gonna Miss You Around Here
TTITLE15=Hully Gully Twist
TTITLE16=3 O'Clock Stomp
TTITLE17=Mashed Potato Twist
TTITLE18=Mashing The Popeye
TTITLE19=Tell Me Baby
TTITLE20=Going Down Slow
TTITLE21=Your Letter
TTITLE22=Blues For Me
EXTD=
EXTT0=
EXTT1=
EXTT2=
EXTT3=
EXTT4=
EXTT5=
EXTT6=
EXTT7=
EXTT8=
EXTT9=
EXTT10=
EXTT11=
EXTT12=
EXTT13=
EXTT14=
EXTT15=
EXTT16=
EXTT17=
EXTT18=
EXTT19=
EXTT20=
EXTT21=
EXTT22=
PLAYORDER=
